<?xml version="1.0" standalone="no"?>
<!DOCTYPE svg PUBLIC "-//W3C//DTD SVG 20010904//EN"
 "http://www.w3.org/TR/2001/REC-SVG-20010904/DTD/svg10.dtd">
<svg version="1.0" xmlns="http://www.w3.org/2000/svg"
 width="1300.000000pt" height="1300.000000pt" viewBox="0 0 1300.000000 1300.000000"
 preserveAspectRatio="xMidYMid meet">
<metadata>
Created by potrace 1.16, written by Peter Selinger 2001-2019
</metadata>
<g transform="translate(0.000000,1300.000000) scale(0.100000,-0.100000)"
fill="#000000" stroke="none">
<path d="M20 6795 c0 -4130 -3 -6205 -10 -6205 -6 0 -10 -105 -10 -295 l0
-295 6500 0 6500 0 0 6500 0 6500 -6490 0 -6490 0 0 -6205z m6560 2270 c55
-113 73 -196 73 -340 -1 -136 -21 -231 -73 -336 -36 -75 -123 -197 -147 -206
-19 -7 -40 18 -88 109 -140 264 -95 634 106 862 l43 48 23 -28 c13 -16 42 -65
63 -109z m-1336 18 c84 -44 204 -158 260 -247 84 -132 126 -273 126 -422 0
-95 -14 -192 -29 -207 -15 -15 -147 62 -217 127 -188 171 -287 434 -254 674
13 94 18 112 32 112 6 0 42 -17 82 -37z m2547 -15 c19 -76 16 -248 -6 -333
-38 -153 -124 -297 -240 -403 -68 -63 -201 -140 -215 -126 -30 33 -39 257 -15
364 43 183 146 348 285 455 56 43 145 94 167 95 6 0 17 -24 24 -52z m-1820
-495 c168 -156 259 -385 246 -618 -6 -101 -37 -221 -75 -293 l-18 -34 -52 42
c-105 83 -200 233 -244 387 -30 105 -32 306 -4 403 23 76 65 170 77 170 4 0
36 -26 70 -57z m1093 2 c47 -98 61 -169 61 -310 0 -106 -5 -145 -23 -210 -46
-159 -140 -307 -249 -390 l-48 -37 -27 59 c-102 219 -84 499 44 718 40 67 184
225 206 225 6 0 22 -25 36 -55z m-2643 -101 c232 -68 451 -302 513 -547 19
-73 29 -214 19 -249 l-8 -27 -80 27 c-113 38 -187 84 -281 177 -151 149 -223
311 -232 518 -3 70 -1 117 5 117 5 0 34 -7 64 -16z m4157 -101 c-4 -90 -11
-137 -31 -198 -80 -244 -289 -450 -517 -510 l-49 -13 -7 44 c-13 88 18 247 71
362 68 145 185 275 320 352 56 32 177 79 204 80 11 0 13 -22 9 -117z m-3326
-135 c75 -40 197 -152 250 -231 53 -77 95 -172 119 -265 30 -117 24 -337 -11
-392 -8 -13 -18 -11 -66 15 -168 90 -301 258 -366 465 -19 64 -23 96 -23 215
0 126 14 225 31 225 4 0 33 -14 66 -32z m2509 -5 c6 -21 13 -92 16 -159 4
-101 2 -134 -16 -205 -42 -166 -138 -325 -257 -423 -69 -56 -169 -114 -180
-104 -16 17 -34 131 -34 224 0 128 24 227 87 354 39 79 62 110 138 186 55 56
115 105 155 127 36 20 68 37 72 37 4 0 12 -17 19 -37z m-4218 -199 c260 -67
485 -291 552 -549 26 -100 24 -105 -38 -105 -120 0 -298 66 -414 154 -154 116
-269 304 -298 485 l-7 44 73 -7 c40 -3 100 -13 132 -22z m6047 15 c0 -5 -7
-42 -16 -82 -34 -148 -131 -303 -259 -410 -121 -102 -310 -177 -444 -177 -59
0 -61 6 -36 105 82 315 392 565 713 574 23 0 42 -4 42 -10z m-5286 -289 c265
-68 487 -293 556 -564 19 -73 27 -186 14 -186 -3 0 -37 7 -77 16 -94 21 -237
90 -311 152 -161 134 -271 337 -283 524 -7 91 -13 87 101 58z m4426 -33 c0
-123 -66 -295 -161 -421 -113 -148 -298 -260 -481 -291 l-38 -6 0 54 c0 179
122 416 283 548 73 59 217 132 302 153 96 23 95 24 95 -37z m-4730 -496 c156
-50 280 -135 381 -262 54 -66 114 -180 125 -235 6 -30 4 -31 -33 -37 -127 -21
-317 19 -452 94 -119 67 -229 174 -299 290 -18 30 -72 160 -72 174 0 10 53 13
150 10 84 -2 124 -9 200 -34z m5275 27 c8 -7 -39 -130 -67 -177 -70 -116 -180
-223 -299 -290 -135 -75 -325 -115 -452 -94 -37 6 -39 7 -33 37 3 17 25 69 48
116 35 69 60 103 138 180 128 128 232 186 405 226 58 13 247 15 260 2z m-5853
-245 c165 -58 306 -163 392 -292 26 -38 46 -74 46 -80 0 -16 -41 -30 -130 -47
-98 -18 -158 -17 -265 1 -212 37 -408 165 -519 338 -20 31 -36 61 -36 66 0 9
40 23 125 45 11 3 83 4 160 2 126 -2 149 -6 227 -33z m6546 13 c28 -9 52 -22
52 -29 0 -7 -16 -37 -36 -67 -177 -268 -531 -405 -839 -325 -33 9 -64 20 -69
25 -13 13 42 105 105 174 99 107 234 186 394 227 90 24 312 21 393 -5z m-2323
-1161 c280 -83 579 -335 800 -675 174 -266 301 -589 374 -947 29 -139 26 -149
-17 -67 -124 234 -330 424 -597 554 -232 113 -401 153 -640 154 -142 0 -177
-3 -310 -32 -274 -58 -495 -64 -710 -21 -97 20 -250 72 -330 112 -100 50 -338
231 -660 501 -190 159 -262 230 -276 274 -11 32 -10 37 11 54 44 36 197 17
323 -40 64 -29 147 -83 350 -225 185 -130 409 -227 559 -242 52 -5 51 -4 -12
9 -100 21 -185 52 -297 107 -118 58 -194 121 -218 181 -26 67 -19 182 14 202
6 4 83 -29 173 -73 186 -90 231 -102 380 -102 154 1 229 31 383 155 145 117
275 158 485 152 99 -3 144 -9 215 -31z m-1158 -5399 c-4 -9 3 -16 16 -20 12
-3 18 -8 14 -12 -10 -10 50 -35 67 -28 8 3 17 0 21 -6 5 -8 11 -5 20 7 7 10
17 15 21 11 4 -5 0 -16 -9 -26 -10 -11 -13 -23 -8 -31 11 -17 -12 -61 -41 -79
-21 -12 -10 -11 27 4 21 8 19 -14 -4 -52 -25 -41 -77 -64 -144 -64 -45 0 -61
5 -86 26 -35 29 -40 50 -13 57 13 4 11 5 -5 6 -17 1 -23 7 -23 26 0 19 -4 23
-16 18 -14 -5 -16 -1 -12 20 4 20 0 27 -16 31 -17 4 -18 8 -8 18 10 10 15 10
22 -1 7 -12 11 -12 23 -3 8 7 19 12 23 10 14 -3 75 38 67 46 -4 4 2 9 14 12
14 4 19 11 16 25 -4 14 0 19 17 19 15 0 20 -5 17 -14z m-639 -160 c3 -102 -7
-137 -33 -116 -9 7 -21 7 -39 -1 -23 -11 -31 -10 -54 8 -22 16 -28 29 -30 68
-4 63 17 88 70 83 30 -3 38 0 38 13 0 30 12 50 29 47 13 -3 16 -20 19 -102z
m122 70 c0 -34 0 -34 39 -29 31 4 43 1 60 -16 l21 -21 0 21 c0 41 34 16 54
-40 l20 -55 19 58 c14 42 23 56 36 54 22 -5 18 -30 -21 -130 l-33 -83 -37 0
c-41 0 -57 18 -21 23 32 5 35 26 10 89 l-22 58 -5 -40 c-3 -22 -9 -46 -14 -53
-13 -21 -53 -32 -80 -22 -15 5 -27 5 -34 -2 -24 -24 -32 6 -32 113 0 102 1
109 20 109 16 0 20 -7 20 -34z m838 17 c2 -8 -5 -13 -16 -13 -25 0 -38 -29
-14 -31 9 -1 39 -1 66 0 27 1 55 -4 62 -10 9 -7 18 -7 33 0 53 29 121 -2 121
-54 0 -24 -3 -25 -56 -25 -57 0 -67 -11 -31 -34 12 -8 22 -7 37 2 23 14 50 16
50 3 0 -17 -31 -41 -53 -42 -71 -4 -97 17 -97 78 0 42 -1 44 -27 41 -26 -3
-28 -7 -31 -53 -6 -100 -52 -94 -52 6 0 33 -2 59 -4 59 -28 0 -36 -16 -36 -69
0 -62 -4 -73 -26 -64 -10 3 -14 22 -14 60 0 41 -5 59 -17 69 -17 13 -17 15 0
28 9 7 17 20 17 28 0 8 6 20 12 26 16 16 70 12 76 -5z m722 -42 l5 -53 24 26
c40 42 77 29 42 -15 -18 -23 -18 -24 6 -62 22 -35 23 -41 10 -54 -14 -14 -18
-11 -39 21 -26 40 -41 42 -47 5 -3 -25 -19 -41 -33 -33 -4 3 -8 55 -8 115 0
100 2 110 18 107 13 -2 18 -16 22 -57z m-2686 -20 c14 -15 14 -20 3 -30 -11
-9 -17 -8 -27 4 -15 18 -53 20 -48 3 3 -7 18 -16 35 -20 59 -15 72 -71 21 -96
-50 -24 -133 17 -101 49 10 10 17 9 31 -4 21 -19 66 -23 60 -5 -2 6 -22 17
-43 25 -56 19 -70 47 -39 77 22 22 87 21 108 -3z m169 -13 c30 -40 17 -58 -43
-58 -44 0 -51 -3 -48 -17 4 -22 44 -29 63 -13 8 7 22 9 31 6 15 -6 15 -8 0
-25 -34 -37 -102 -34 -132 7 -20 26 -17 76 7 106 29 37 92 34 122 -6z m228 11
c11 -11 19 -30 17 -42 -3 -19 -10 -22 -56 -25 -44 -3 -53 -6 -50 -20 4 -20 45
-29 61 -13 12 12 47 15 47 4 -1 -29 -57 -57 -96 -47 -32 8 -64 50 -64 84 0 15
9 39 21 54 26 34 88 37 120 5z m419 1 c11 -11 20 -31 20 -45 0 -24 -3 -25 -56
-25 -47 0 -55 -3 -50 -16 3 -9 6 -18 6 -20 0 -9 49 -3 55 6 6 10 45 15 45 6 0
-38 -65 -65 -107 -44 -52 25 -66 96 -26 140 23 25 87 24 113 -2z m1553 -12
c30 -40 17 -58 -43 -58 -44 0 -51 -3 -48 -17 4 -23 34 -28 64 -12 28 15 43 5
28 -18 -25 -40 -112 -31 -132 12 -18 38 -15 69 9 99 29 37 92 34 122 -6z m67
20 c0 -9 3 -9 12 0 21 21 65 14 87 -14 52 -66 -2 -159 -76 -133 -21 8 -23 6
-23 -26 0 -28 -4 -35 -20 -35 -19 0 -20 7 -20 110 0 103 1 110 20 110 11 0 20
-5 20 -12z m737 -10 c15 -14 23 -33 23 -55 0 -46 -14 -69 -50 -82 -82 -28
-144 63 -89 133 27 34 82 36 116 4z m158 12 c4 -7 13 -6 25 0 27 15 56 12 74
-6 19 -19 22 -124 4 -142 -21 -21 -38 7 -38 64 0 29 -4 55 -8 58 -18 11 -34
-14 -39 -60 -6 -66 -10 -75 -28 -68 -11 5 -15 21 -15 64 0 40 -4 59 -14 63
-23 9 -36 -15 -36 -69 0 -35 -4 -54 -14 -57 -23 -9 -26 2 -26 83 l0 76 55 2
c30 1 57 -3 60 -8z"/>
</g>
</svg>
